<?xml version="1.0" standalone="no"?>
<!DOCTYPE svg PUBLIC "-//W3C//DTD SVG 20010904//EN"
 "http://www.w3.org/TR/2001/REC-SVG-20010904/DTD/svg10.dtd">
<svg version="1.0" xmlns="http://www.w3.org/2000/svg"
 width="1200.000000pt" height="1200.000000pt" viewBox="0 0 1200.000000 1200.000000"
 preserveAspectRatio="xMidYMid meet">
<metadata>
Created by potrace 1.14, written by Peter Selinger 2001-2017
</metadata>
<g transform="translate(0.000000,1200.000000) scale(0.100000,-0.100000)"
fill="#000000" stroke="none">
<path d="M7185 7675 c-187 -34 -365 -106 -512 -207 -249 -171 -433 -452 -499
-760 -25 -115 -25 -351 0 -468 57 -275 193 -508 400 -688 306 -267 733 -360
1131 -248 319 90 606 328 758 631 95 191 141 442 117 655 -45 418 -275 762
-640 959 -215 115 -528 168 -755 126z m330 -46 c268 -33 525 -167 712 -370
l42 -45 -195 -340 c-108 -186 -197 -340 -199 -342 -1 -2 -56 88 -120 200 -476
820 -516 891 -503 899 19 12 157 11 263 -2z m-171 -294 c89 -154 177 -306 195
-337 l32 -58 -636 0 -637 0 45 84 c103 193 250 347 438 457 121 70 318 141
378 136 19 -2 50 -48 185 -282z m1035 -285 c56 -95 107 -230 131 -350 31 -149
25 -379 -14 -524 -14 -55 -30 -104 -34 -108 -5 -5 -184 -7 -399 -6 l-392 3
111 190 c60 105 113 197 116 206 4 9 97 172 207 362 l199 346 19 -27 c10 -15
35 -56 56 -92z m-656 -364 c64 -112 117 -208 117 -214 0 -5 -52 -100 -116
-211 l-117 -201 -240 2 -241 3 -117 203 -117 204 105 181 c58 100 112 194 121
210 l16 27 236 0 235 0 118 -204z m-722 77 c-37 -65 -175 -305 -306 -533 -131
-228 -244 -423 -251 -434 -12 -17 -16 -13 -57 50 -179 280 -229 634 -135 962
l21 72 398 0 398 0 -68 -117z m-11 -563 c62 -107 202 -350 311 -538 110 -189
199 -346 199 -348 0 -11 -257 -2 -332 11 -164 28 -350 107 -481 203 -63 46
-217 190 -217 202 0 6 169 301 337 589 30 51 58 89 63 85 4 -5 58 -97 120
-204z m1409 -271 c-128 -246 -345 -440 -611 -545 -79 -31 -220 -66 -230 -56
-3 4 -94 159 -201 345 l-195 337 639 0 640 0 -42 -81z"/>
<path d="M1810 7310 l0 -30 65 0 65 0 0 -780 0 -780 -65 0 -65 0 0 -30 0 -30
363 2 362 3 3 28 3 27 -65 0 -66 0 0 780 0 780 66 0 65 0 -3 28 -3 27 -362 3
-363 2 0 -30z"/>
<path d="M2644 7326 c-3 -8 -4 -23 -2 -33 3 -15 15 -19 71 -21 l67 -3 0 -774
0 -775 -70 0 -70 0 0 -30 0 -30 633 2 632 3 16 190 c9 105 19 232 23 283 l8
92 -29 0 c-26 0 -32 -8 -67 -77 -52 -107 -137 -234 -190 -287 -90 -91 -179
-129 -324 -141 l-92 -7 0 776 0 775 123 3 122 3 0 30 0 30 -423 3 c-362 2
-423 0 -428 -12z"/>
<path d="M4064 7325 c-14 -34 3 -45 71 -45 l65 0 0 -780 0 -779 -67 -3 c-65
-3 -68 -4 -68 -28 l0 -25 165 0 165 0 0 25 c0 24 -3 25 -67 28 l-68 3 1 742
c0 408 3 735 7 727 3 -8 99 -355 212 -770 l205 -755 148 -3 c145 -2 147 -2
157 20 5 13 86 356 181 763 94 407 173 742 175 744 2 2 4 -327 4 -732 l0 -737
-65 0 -65 0 0 -30 0 -30 363 2 362 3 3 28 3 27 -65 0 -66 0 0 780 0 780 66 0
65 0 -3 28 -3 27 -317 3 -317 2 -10 -37 c-6 -21 -69 -292 -142 -603 -72 -311
-132 -566 -133 -567 -1 -2 -72 268 -158 600 l-155 602 -322 3 c-279 2 -322 0
-327 -13z"/>
</g>
</svg>
